<svg height="587" viewBox="-.02691722 -.03562835 332.56957821 78.00828295" width="2500" xmlns="http://www.w3.org/2000/svg"><path d="m5.47 77.97a5.46 5.46 0 0 1 -5.47-5.45v-67a5.45 5.45 0 0 1 5.47-5.55h321.62a5.44 5.44 0 0 1 5.45 5.45v67a5.53 5.53 0 0 1 -5.55 5.45h-321.52z" fill="#231f20"/><path d="m326.99 2.35a3.5 3.5 0 0 1 3.24 3.08l-.06 67a3.56 3.56 0 0 1 -3.26 3.1h-321.54a3.36 3.36 0 0 1 -3-3.12v-67a3.32 3.32 0 0 1 3-3.08z" fill="#f7eb1c"/><path d="m326.16 53.33-217.33-.36c-14-.14-28.54-.1-41.21-4.05a19.25 19.25 0 0 1 -.46 3.48 6 6 0 0 0 -1.73-2.9c-1.81-1.91-3.14 0-3.7-1.39-1-.84-2.72-.16-3.76.18a13.23 13.23 0 0 1 -.2-4.53l5.47-6.9-2.27-1.89 3.06-3.26 1.37.72 7-5.11a1.65 1.65 0 0 0 .74-1.47 1.51 1.51 0 0 0 -.56-1.17l-6.31-4.11-.64.24a62.57 62.57 0 0 1 -6.5-3.34s.93-.87.36-1.75a1.36 1.36 0 0 0 -1.55-.28l.18-.28a3.6 3.6 0 0 0 .4-1.69c-.56-2.13-2.66-3.22-4.63-3.48-1.57-.28-3.12.68-4-.7a1.18 1.18 0 0 1 0-1.09c.06-.34.32-.36.46-.7-1.27-.24-1.45.34-1.81.4-.48.34-.7-.24-.52-.7-1.75.64-2 .34-2.43-1a2.8 2.8 0 0 0 -2.31-.81c-3 .3-3.64 4.08-6.36 4.81a1.76 1.76 0 0 1 -1.39-.58 2.52 2.52 0 0 1 -.56-2.66 14.08 14.08 0 0 0 -2.68 1.39c-.3.12 0-.91-.81-.66a8.57 8.57 0 0 1 -1.41 1.05 4 4 0 0 1 -2.17.24c-2.68-1.09-4.37 1.53-6.18 3.24-.8.48-1.23.1-2-.46a6.52 6.52 0 0 0 1.09 2.43c.24.3.42.7-.06.93.84 1.19 2.27 1.47 3.36 2.31.3 1.81 1.35-.32 2.15.3-.18 2 1.51.08 2.37.93 2.17 1.35 4.11 3.24 6.82 3.3.28 1.41.64 0 1.91.12.36.32-.22 1 .3 1.39 2.17-.81 4.71.12 6.94-.34 2-.28 3.66-2 4.81-3.54a4.53 4.53 0 0 0 2.66 1.15v-.4a3.66 3.66 0 0 1 2.48-2.31v.1a1 1 0 0 0 -.12 1.35 1.15 1.15 0 0 0 .34.28l-5.7 6.22v-2h-20.15v21.37l-.62.42c-.68 2-1.33-.36-2.94-.93-1.09-.32-3.3.46-5.13 1.37-4.15 2.29-5.65 3.62-6.94 6.66a52.83 52.83 0 0 1 -7.3-.3v3.18c2.46-.32 4.91-.48 7.39-.58a5 5 0 0 0 1.39 1.91c1.15.46 1.27-1.17 2.31-2.09h5.45l.46 1.53-3.3 3 5.09 1.53a2.21 2.21 0 0 0 1.11-.26 37.46 37.46 0 0 0 8.67-5.78h6l5.17 4 1.71-2.17.72.38a7.12 7.12 0 0 1 3.12 3.44l-2.62 2.09s1.77.44 1.77.4l-2.15 3c-1 1.13-1.61 2.52-2.66 3.54a8 8 0 0 0 -3.52-1.57h-1a2 2 0 1 0 0 4 2 2 0 0 0 2-1.75c.84-.26 1.47.42 2 1 .08.4-.18.93.34 1.17h14.53c-.46-1.37-1.15-1.55-2.11-2.33s-1.85-1.09-6.76-1.35a13.13 13.13 0 0 1 2.56-5.13l3.12.2v-6.16s-1.77.78-1.81.76a32.07 32.07 0 0 0 -4.21-3.46h3.51c.42.66.5 1.57 1.27 2 1.07 1 2.15-1.21 2.88.52a2.42 2.42 0 0 0 2.27.4c2.66 1.49 3.9.48 3.9.48 1-.58 1.13-.58 1.71-1.51a9.21 9.21 0 0 0 .87-1.91s.36 4.17.36 4.21a158 158 0 0 1 33.61-3.82l225-.93a10.09 10.09 0 0 1 .89-.72 8.94 8.94 0 0 1 -.85-.42zm-307.11-.28a11.46 11.46 0 0 1 3.06-2.48 14.4 14.4 0 0 0 .12 2.5zm6.12 0a35.72 35.72 0 0 1 .84-5.7 10.86 10.86 0 0 0 2.88 1.33v3.42l-1.71 1zm3.62 2.54-.87.24c.22-.48.08-.74.28-.87h1.75a4.31 4.31 0 0 1 -1.15.62zm3.64-2.5h-3.18a3.73 3.73 0 0 1 0-.64h4a3.69 3.69 0 0 1 -.8.62zm3.62.18.52-.78h.62l1 .8zm18.23-.12h-3.82c.02 0 3.81-5.18 3.89-5.18s.6 4-.08 5.13z" fill="#231f20"/><path d="m92.89 53.49c.16.32-.08.62-.24.87-2.54.4-5.35.38-7.87.7a2.23 2.23 0 0 1 .81-1.85c2.68.18 4.85.22 7.3.28z" fill="#ed1c24"/><path d="m40.27 70.63a.76.76 0 0 1 .78-.78.78.78 0 0 1 .78.78.78.78 0 0 1 -1.55 0zm3-1.48-.3.66c-1.07.3-.74-.89-2.43-.38h-.89a1.57 1.57 0 0 1 1.05-.76 2.89 2.89 0 0 1 2.56.48zm9.43-5.56a21.25 21.25 0 0 0 -2.72 5.35 8.15 8.15 0 0 0 -1.25.32 5.69 5.69 0 0 0 -2.72 2.33 53.25 53.25 0 0 1 5.11-8.27zm-2.92 8.01h-2.66c1-1.25 1.51-1.85 2.86-2a6.5 6.5 0 0 1 1.53.08 20.52 20.52 0 0 0 -1.73 2zm5.78-1.63c-.68.5-.62 1-.91 1.57h-3.92a4.86 4.86 0 0 1 2-1.95 15.22 15.22 0 0 1 2.78.38zm2.86 1.61h-2.94c.16-.72.36-1.15.91-1.35.93.36 1.65.58 2 1.33zm-2.5-8.61a38.49 38.49 0 0 1 -5.43-.76 23.74 23.74 0 0 1 5.43-3.18zm-1.81-4.05-2 1.17a14.26 14.26 0 0 0 -4-4.15l.85-1.11a12.81 12.81 0 0 1 5.21 4.09zm-35.3-6.95a12 12 0 0 0 -2 1.85c-.46-1.07-1.25-2.23-.93-3.42a8.12 8.12 0 0 1 2.37-2s.2 1.81.54 3.54zm-3.76-.71a7.24 7.24 0 0 0 1.17 3.26c-.32.56-.7.87-1.11 1.53-.66-.12-.89-1.27-1.09-1.81-.24-1.11.16-1.84 1.03-2.98zm10.36-5.52a29.89 29.89 0 0 0 -1 9.5l-.52.4a32.14 32.14 0 0 1 -.74-4.45 37 37 0 0 1 .44-5.37s1.22-.44 1.82-.08zm-3.26 3.85a20.37 20.37 0 0 0 -2.62 1.69 16.58 16.58 0 0 1 -.36-3.38 25.93 25.93 0 0 1 3.1-1.73zm5.38 4.99a29.06 29.06 0 0 1 -2.78 5.63l-3.42-1.05a28.29 28.29 0 0 1 6.2-4.58zm8.05-2.12a23.08 23.08 0 0 1 -9.36 7.2l1.37-3a10.63 10.63 0 0 0 3.18-1.37c1.31-1 2.25-1.81 3.64-2.86z" fill="#00aeef"/><path d="m42.26 52.46-1.37 1.71-2.51-1.71z" fill="#00a651"/><path d="m57.07 48.7-1.61 1.91-.19-3.64 1.51-2.13a20.42 20.42 0 0 0 .32 3.82zm3.7.04a8.88 8.88 0 0 0 -3.82 4.27h-1.67c.22-2.09 2.56-3.92 4.39-4.59.38-.08.91-.12 1.09.3zm2.56 5.98c0 .24.06.58-.4.7s-.89-.84-.78-1.09c.61-.24 1-.14 1.18.39zm-1.69.25c0 .18 0 .48-.3.46a.3.3 0 0 1 -.4-.4c-.08-.24.18-.3.3-.46s.34.23.4.4zm-3.06-.25c.54.12 1.07.56 0 1-.71-.02-.83-.98 0-1zm6.48-4.23c-.12.58-.58.8-1.45 1.05-.93.7-.4 1.81-2 1.55-.56-.38-.24-1.19-.28-1.73.24-.85.52-1.83 1.51-2.13a2.46 2.46 0 0 1 2.25 1.25zm-4.79 2.56h-2.11c-.06-1.39 3.16-3.72 3.16-3.72a9.84 9.84 0 0 0 -1.05 3.74zm5.87.06a1.9 1.9 0 0 1 0 1.61 1.56 1.56 0 0 1 -1.45.4c-.58-.54-1.25-1.37-1.07-2.19a2.36 2.36 0 0 1 1.17-1c.66-.16 1.17.7 1.35 1.17zm-8.69 1.95a1.11 1.11 0 0 1 -.81 1.15c-.48.1-.89 0-1.19-.72-.26-.5 0-.72 0-.72a2.06 2.06 0 0 1 2 .28zm2.68.82c0 .08.06 1.19 0 1.19s-1.05-.38-1.17-.46c-.06-.4.52-.8 1.21-.74zm2.14.47-.3 1c-.18.3-1-.14-1.17-.85.09-.31 1.47-.45 1.47-.15zm1.92 1.18c-.4.36-1.41.48-1.65.2 0-.14.34-1.41.76-1.41.61.13.77.87.89 1.21zm-3.92-3.28a.65.65 0 0 1 0 .81l-.76-.3c-.2-.26.1-.64.72-.52zm5.57 1.72a.85.85 0 0 1 -.85.87.83.83 0 0 1 -.68-1 2.25 2.25 0 0 1 1.53.12z" fill="#00aeef"/><path d="m80.15 52.62a17.58 17.58 0 0 1 -1.79 3.36c-2.8.38-5 .7-7.57 1.21a46.89 46.89 0 0 1 3.3-5.72 47.92 47.92 0 0 0 6.06 1.15zm-35.26-45.84a3.67 3.67 0 0 1 .12 2.44 14.48 14.48 0 0 0 2.17-.76c0 .42 0 .76.3.87l.93-.46a3.57 3.57 0 0 0 1.45 1.81c2 .46 4.85-.18 6.24 1.11.62.62 1.47 1.57 1.19 2.64-.48 1.63-4.17 3-6.16 4.87-.42.5-1.67-.48-2.29-1a8.06 8.06 0 0 1 -5 3.9c-1.71.2-3.74-.06-5.39.18l-.16-1c-.87-.72-1 0-1.93.24-.4-1.23-.87-.38-1.59-.46-3-.52-6.14-4.55-7.65-3.44-.34-.08 0-.91-.54-1-.52-.34-1 .3-1.69.46.06-.76-1.59-1-2.8-1.95-.14-.42.36-.18.22-.6a2.62 2.62 0 0 1 -1.11-1.37c2.7-.8 3.06-4.21 6.08-3.6a5.83 5.83 0 0 1 1.69.84 9.4 9.4 0 0 1 .68-.72c1 .36 1.19-.64 1.85-.93a.67.67 0 0 0 .4.81c.84-.18 1.15-1.25 2-1.39a4.25 4.25 0 0 0 1.85 2.54c3.44 1.09 4.59-3.4 7.45-4.47a2 2 0 0 1 1.69.42z" fill="#ed1c24"/><path d="m48.12 51.58-18.42-.02v-26.83l18.44.02z" fill="#f7941e"/><path d="m57.93 30.53a3.94 3.94 0 1 1 0-7.87 3.74 3.74 0 0 1 2.19.68l4-2.11c-2.11-1.13-4.19-2.09-6.28-3.28-.22-.22.87-.81.34-1.45-.7-.78-2.11.64-3 1.45-.46.58-.52 1.33 1.21 1.33l-6.68 7.3 10.38 7.75 2.9-3.06-2.46-1.25a15.59 15.59 0 0 1 -2.68.5z" fill="#00aeef"/><path d="m48.92 43.89-.02-8.05 4.51-5.39 3.78 2.73z" fill="#00a651"/><path d="m62.06 36.97-16.48 20.87-4.05-3.1s1.85-2.27 1.89-2.29h5.57v-7.06l9-11.51z" fill="#ed1c24"/><path d="m31.35 38.05-.02-4.87 3.81-2.31 3.58 2.07 3.72-1.95 3.86 2.13.01 4.81-3.61 2.28-.06 4.75-3.98 2.05-4.07-2.31.02-4.67z" fill="#231f20"/><path d="m71.58 26.79c-.4.34-6.34 4.49-6.34 4.49l-4.73-2.43a3.22 3.22 0 0 1 -2.52.81 3.1 3.1 0 1 1 2.09-5.41l5.8-2.76 5.49 3.38s.84.5.84 1a1.46 1.46 0 0 1 -.62 1z" fill="#00aeef"/><path d="m39.06 37.67v-4.1l3.36-1.77 3.1 1.73v4.1l-3.14 1.85zm-6.92-.06v-4.04l3.08-1.75 2.98 1.77v4.04l-3 1.87zm3.28 6.74-.02-4.04 3.24-1.89 3.3 1.87v4.16l-3.3 1.73z" fill="#fff"/><path d="m55.54 26.6a2.41 2.41 0 1 1 2.41 2.41 2.4 2.4 0 0 1 -2.41-2.41z" fill="#231f20"/><path d="m56.42 26.56a1.54 1.54 0 1 1 1.53 1.55 1.55 1.55 0 0 1 -1.53-1.55z" fill="#00aeef"/><path d="m65.08 26.83a.855.855 0 0 1 -1.71 0v-2a.86.86 0 0 1 1.71 0zm.42-1.03v-2a.87.87 0 0 1 1.73 0v4.17a.85.85 0 0 1 -.85.85.88.88 0 0 1 -.89-.85v-2.15zm3.92 1.03a.855.855 0 0 1 -1.71 0v-2a.86.86 0 0 1 .85-.78.85.85 0 0 1 .85.78z" fill="#231f20"/><path d="m43.06 34.79a.59.59 0 0 0 -.4-.12h-.68v1h.68a.58.58 0 0 0 .4-.12.49.49 0 0 0 .14-.4.46.46 0 0 0 -.14-.38zm.56 1.25a1.3 1.3 0 0 1 -.89.26h-.74v1.25h-.72v-3.48h1.51a1.25 1.25 0 0 1 .84.28 1.28 1.28 0 0 1 0 1.69z" fill="none"/><path d="m33.97 37.55v-3.46h2.55v.62h-1.83v.73h1.67v.6h-1.67v.89h1.9v.62zm5.35 3.16h1.15v3.48h-.74v-2.9l-.72 2.9h-.74l-.72-2.9v2.9h-.74v-3.48h1.15l.7 2.72zm3.74-5.92a.59.59 0 0 0 -.4-.12h-.68v1h.68a.58.58 0 0 0 .4-.12.49.49 0 0 0 .14-.4.46.46 0 0 0 -.14-.38zm.56 1.25a1.3 1.3 0 0 1 -.89.26h-.74v1.25h-.72v-3.48h1.51a1.25 1.25 0 0 1 .84.28 1.28 1.28 0 0 1 0 1.69zm176.11 2.38v5.55h21.49v-5.55h-3.82a1 1 0 0 1 -1-1v-17.11a1 1 0 0 1 1-1h3.82v-5.49h-21.47v5.49h4a1 1 0 0 1 1 1v17.11a1 1 0 0 1 -1 1zm73.39 0v5.55h21.49v-5.55h-3.82a1 1 0 0 1 -1-1v-17.11a1 1 0 0 1 1-1h3.82v-5.49h-21.47v5.49h4a1 1 0 0 1 1 1v17.11a1 1 0 0 1 -1 1zm-84.32-.99v-17.12a1.05 1.05 0 0 1 1.05-1h3.82v-5.47h-20.49v5.49h4a1 1 0 0 1 1 1v6l-11.11-12.48h-14.39c.06.06 0 5.47 0 5.47h4a1 1 0 0 1 1 1v17.11a1 1 0 0 1 -1 1h-4v5.54h20.51v-5.49l5.23 5.55h15.29v-5.59h-3.82a1 1 0 0 1 -1.09-1zm-15.74 1h-3.74a1 1 0 0 1 -1-1v-4.26l4.75 5.25h.06zm89.21-1v-17.12a1.05 1.05 0 0 1 1.05-1h3.82v-5.47h-20.49v5.49h4a1 1 0 0 1 1 1v6l-11.11-12.48h-14.43v5.47h4.05a1 1 0 0 1 1 1v17.11a1 1 0 0 1 -1 1h-4v5.54h20.51v-5.49l5.21 5.55h15.29v-5.59h-3.82a1.08 1.08 0 0 1 -1.07-1zm-15.74 1h-3.74a1 1 0 0 1 -1-1v-4.26l4.75 5.25h.06zm-114.76.05h-2.39v5.49h20v-5.52h-2.6c-.87-.12-2.27.34-2.58-.72l-6.93-23.87h-16.73l-7.27 23.87c-.34 1.05-1.73.58-2.58.68h-2.7v5.55h20v-5.49h-1.85a1.18 1.18 0 0 1 -1.29-1.15l.91-3h6.4l.93 3a1.23 1.23 0 0 1 -1.33 1.15zm-2.92-14 1.41 4.29h-2.8zm-21.99-8.14a5.52 5.52 0 0 0 -4.39-2.52h-27v5.49h3.8a1 1 0 0 1 1 1v17.13a1 1 0 0 1 -1 1h-3.8v5.53h22v-5.57h-4.09a1 1 0 0 1 -1-1v-3.14h10.69a4.67 4.67 0 0 0 4.63-4.91v-9.54a5.87 5.87 0 0 0 -.81-3.5zm-14.53 2.94h2.37a1 1 0 0 1 1 1v7.08a1 1 0 0 1 -1 1h-2.37z" fill="#231f20"/><path d="m211.98 40.09h-2.15a2.71 2.71 0 0 1 -2.72-2.72v-17.03a2.73 2.73 0 0 1 2.72-2.72h2.17v-2.15h-17.09v2.15h2.29a2.71 2.71 0 0 1 2.72 2.72v10.3l-13.52-15.17h-12v2.17h2.33a2.71 2.71 0 0 1 2.72 2.72v17.01a2.7 2.7 0 0 1 -2.72 2.7h-2.35v2.17h17.09v-2.17h-2.19a2.71 2.71 0 0 1 -2.72-2.72v-8.53l12.6 13.36h12.84zm73.47 0h-2.15a2.71 2.71 0 0 1 -2.72-2.72v-17.03a2.71 2.71 0 0 1 2.72-2.72h2.17v-2.15h-17.09v2.15h2.29a2.71 2.71 0 0 1 2.72 2.72v10.3l-13.52-15.17h-12v2.17h2.33a2.71 2.71 0 0 1 2.72 2.72v17.01a2.7 2.7 0 0 1 -2.72 2.7h-2.35v2.17h17.09v-2.17h-2.17a2.71 2.71 0 0 1 -2.72-2.72v-8.53l12.6 13.36h12.84zm-64.01.02v2.17h18.07v-2.19h-2.17a2.74 2.74 0 0 1 -2.72-2.74v-17.04a2.71 2.71 0 0 1 2.72-2.72h2.15v-2.17h-18.07v2.17h2.29a2.71 2.71 0 0 1 2.72 2.72v17.06a2.71 2.71 0 0 1 -2.72 2.72zm73.41 0v2.17h18.07v-2.19h-2.19a2.74 2.74 0 0 1 -2.72-2.74v-17.01a2.71 2.71 0 0 1 2.72-2.72h2.17v-2.15h-18.07v2.17h2.29a2.71 2.71 0 0 1 2.72 2.72v17.06a2.71 2.71 0 0 1 -2.72 2.72zm-169.44-22.38a4.22 4.22 0 0 0 -3.36-2.29h-24.94v2.17h2.16a2.71 2.71 0 0 1 2.72 2.72v17.06a2.73 2.73 0 0 1 -2.72 2.72h-2.17v2.19h18.61v-2.17h-2.44a2.66 2.66 0 0 1 -2.66-2.72v-4.75s12 .2 13.24-.54a3.48 3.48 0 0 0 1.81-2.66v-10.49zm-10.69 12.32h-4.08v-12.44h4.05a2.71 2.71 0 0 1 2.72 2.72v7a2.7 2.7 0 0 1 -2.72 2.72zm50.55 10.04a2.74 2.74 0 0 1 -2.58-1.65l-6.6-23h-14.26c-1.05 3.18-4.81 15.92-6.32 21l-.58 2a2.74 2.74 0 0 1 -2.58 1.65h-2.66v2.17h16.66v-2.19h-.24a2.76 2.76 0 0 1 -3-2.74l.26-1 1.17-3.76h8.87l1.43 4.75a2.8 2.8 0 0 1 -3 2.74h-.78v2.25h16.76v-2.27zm-12.74-9.58h-7.26l-.12-.12 3.64-11.51 3.7 11.51z" fill="#ed1c24"/></svg>